<?xml version="1.0" encoding="UTF-8"?>
<svg width="19px" height="23px" viewBox="0 0 19 23" version="1.1" xmlns="http://www.w3.org/2000/svg" xmlns:xlink="http://www.w3.org/1999/xlink">
    <!-- Generator: sketchtool 53.2 (72643) - https://sketchapp.com -->
    <title>5C48F71D-668E-4935-8F92-EA3C001A6B2D</title>
    <desc>Created with sketchtool.</desc>
    <defs>
        <polygon id="path-1" points="2.5 7.5 3.38125 8.38125 6.875 4.89375 6.875 12.5 8.125 12.5 8.125 4.89375 11.6125 8.3875 12.5 7.5 7.5 2.5"></polygon>
    </defs>
    <g id="SSES-Assets" stroke="none" stroke-width="1" fill="none" fill-rule="evenodd">
        <g transform="translate(-111.000000, -175.000000)" id="Map-Marker/Well/Tripping-Selected">
            <g transform="translate(109.000000, 175.000000)">
                <rect id="Container" x="0" y="0" width="24" height="24"></rect>
                <path d="M11.5,22.5125132 C13.2784649,17.8257795 20,14.1944204 20,9.5 C20,4.80557963 16.1944204,1 11.5,1 C6.80557963,1 3,4.80557963 3,9.5 C3,14.1944204 9.68499261,17.7367036 11.5,22.5125132 Z" id="Oval" stroke="#FFFFFF" fill="#FF00FF"></path>
                <g id="icon/navigation/arrow_upward_24px" transform="translate(4.000000, 2.000000)">
                    <mask id="mask-2" fill="white">
                        <use xlink:href="#path-1"></use>
                    </mask>
                    <g fill-rule="nonzero"></g>
                    <g id="↳-Color" mask="url(#mask-2)" fill="#FFFFFF">
                        <rect id="Rectangle-3" x="0" y="0" width="15" height="15"></rect>
                    </g>
                </g>
            </g>
        </g>
    </g>
</svg>