<?xml version="1.0" encoding="UTF-8"?>
<svg width="19px" height="23px" viewBox="0 0 19 23" version="1.1" xmlns="http://www.w3.org/2000/svg" xmlns:xlink="http://www.w3.org/1999/xlink">
    <!-- Generator: sketchtool 53.2 (72643) - https://sketchapp.com -->
    <title>80637640-FE07-4A2E-9676-110041246FDD</title>
    <desc>Created with sketchtool.</desc>
    <defs>
        <path d="M6.875,11.25 L8.125,11.25 L8.125,10 L6.875,10 L6.875,11.25 Z M7.5,1.25 C4.05,1.25 1.25,4.05 1.25,7.5 C1.25,10.95 4.05,13.75 7.5,13.75 C10.95,13.75 13.75,10.95 13.75,7.5 C13.75,4.05 10.95,1.25 7.5,1.25 Z M7.5,12.5 C4.74375,12.5 2.5,10.25625 2.5,7.5 C2.5,4.74375 4.74375,2.5 7.5,2.5 C10.25625,2.5 12.5,4.74375 12.5,7.5 C12.5,10.25625 10.25625,12.5 7.5,12.5 Z M7.5,3.75 C6.11875,3.75 5,4.86875 5,6.25 L6.25,6.25 C6.25,5.5625 6.8125,5 7.5,5 C8.1875,5 8.75,5.5625 8.75,6.25 C8.75,7.5 6.875,7.34375 6.875,9.375 L8.125,9.375 C8.125,7.96875 10,7.8125 10,6.25 C10,4.86875 8.88125,3.75 7.5,3.75 Z" id="path-1"></path>
    </defs>
    <g id="SSES-Assets" stroke="none" stroke-width="1" fill="none" fill-rule="evenodd">
        <g transform="translate(-71.000000, -208.000000)" id="Map-Marker/Well/Unknown">
            <g transform="translate(69.000000, 208.000000)">
                <rect id="Container" x="0" y="0" width="24" height="24"></rect>
                <path d="M11.5,22.5125132 C13.2784649,17.8257795 20,14.1944204 20,9.5 C20,4.80557963 16.1944204,1 11.5,1 C6.80557963,1 3,4.80557963 3,9.5 C3,14.1944204 9.68499261,17.7367036 11.5,22.5125132 Z" id="Oval-Copy-12" stroke="#FFFFFF" fill="#39577A"></path>
                <g id="icon/navigation/arrow_upward_24px-copy-8" transform="translate(4.000000, 2.000000)">
                    <mask id="mask-2" fill="white">
                        <use xlink:href="#path-1"></use>
                    </mask>
                    <g id="icon/action/help_outline_24px" fill-rule="nonzero"></g>
                    <g id="↳-Color" mask="url(#mask-2)" fill="#FFFFFF">
                        <rect id="Rectangle-3" x="0" y="0" width="15" height="15"></rect>
                    </g>
                </g>
            </g>
        </g>
    </g>
</svg>