<?xml version="1.0" encoding="UTF-8"?>
<svg width="19px" height="19px" viewBox="0 0 19 19" version="1.1" xmlns="http://www.w3.org/2000/svg" xmlns:xlink="http://www.w3.org/1999/xlink">
    <!-- Generator: sketchtool 53.2 (72643) - https://sketchapp.com -->
    <title>6F643184-C190-429B-BB6A-E3806A87DE32</title>
    <desc>Created with sketchtool.</desc>
    <defs>
        <path d="M6.875,11.25 L8.125,11.25 L8.125,10 L6.875,10 L6.875,11.25 Z M7.5,1.25 C4.05,1.25 1.25,4.05 1.25,7.5 C1.25,10.95 4.05,13.75 7.5,13.75 C10.95,13.75 13.75,10.95 13.75,7.5 C13.75,4.05 10.95,1.25 7.5,1.25 Z M7.5,12.5 C4.74375,12.5 2.5,10.25625 2.5,7.5 C2.5,4.74375 4.74375,2.5 7.5,2.5 C10.25625,2.5 12.5,4.74375 12.5,7.5 C12.5,10.25625 10.25625,12.5 7.5,12.5 Z M7.5,3.75 C6.11875,3.75 5,4.86875 5,6.25 L6.25,6.25 C6.25,5.5625 6.8125,5 7.5,5 C8.1875,5 8.75,5.5625 8.75,6.25 C8.75,7.5 6.875,7.34375 6.875,9.375 L8.125,9.375 C8.125,7.96875 10,7.8125 10,6.25 C10,4.86875 8.88125,3.75 7.5,3.75 Z" id="path-1"></path>
    </defs>
    <g id="SSES-Assets" stroke="none" stroke-width="1" fill="none" fill-rule="evenodd">
        <g transform="translate(-35.000000, -207.000000)" id="Map-Legend/Well/Unknown">
            <g transform="translate(36.000000, 208.000000)">
                <path d="M8.5,17 C12.75,17 17,13.1944204 17,8.5 C17,3.80557963 13.1944204,0 8.5,0 C3.80557963,0 0,3.80557963 0,8.5 C0,13.1944204 4.25,17 8.5,17 Z" id="Oval-Copy-12" stroke="#FFFFFF" fill="#39577A"></path>
                <g id="icon/navigation/arrow_upward_24px-copy-8" transform="translate(1.000000, 1.000000)">
                    <mask id="mask-2" fill="white">
                        <use xlink:href="#path-1"></use>
                    </mask>
                    <g id="icon/action/help_outline_24px" fill-rule="nonzero"></g>
                    <g id="↳-Color" mask="url(#mask-2)" fill="#FFFFFF">
                        <rect id="Rectangle-3" x="0" y="0" width="15" height="15"></rect>
                    </g>
                </g>
            </g>
        </g>
    </g>
</svg>