<?xml version="1.0" encoding="UTF-8"?>
<svg width="19px" height="23px" viewBox="0 0 19 23" version="1.1" xmlns="http://www.w3.org/2000/svg" xmlns:xlink="http://www.w3.org/1999/xlink">
    <!-- Generator: sketchtool 53.2 (72643) - https://sketchapp.com -->
    <title>D60AC0AB-072A-480D-98E3-0930C9EDE3C8</title>
    <desc>Created with sketchtool.</desc>
    <defs>
        <path d="M7.5,1.25 C4.05,1.25 1.25,4.05 1.25,7.5 C1.25,10.95 4.05,13.75 7.5,13.75 C10.95,13.75 13.75,10.95 13.75,7.5 C13.75,4.05 10.95,1.25 7.5,1.25 Z M8.125,11.875 L6.875,11.875 L6.875,10.625 L8.125,10.625 L8.125,11.875 Z M9.41875,7.03125 L8.85625,7.60625 C8.40625,8.0625 8.125,8.4375 8.125,9.375 L6.875,9.375 L6.875,9.0625 C6.875,8.375 7.15625,7.75 7.60625,7.29375 L8.38125,6.50625 C8.6125,6.28125 8.75,5.96875 8.75,5.625 C8.75,4.9375 8.1875,4.375 7.5,4.375 C6.8125,4.375 6.25,4.9375 6.25,5.625 L5,5.625 C5,4.24375 6.11875,3.125 7.5,3.125 C8.88125,3.125 10,4.24375 10,5.625 C10,6.175 9.775,6.675 9.41875,7.03125 Z" id="path-1"></path>
    </defs>
    <g id="SSES-Assets" stroke="none" stroke-width="1" fill="none" fill-rule="evenodd">
        <g transform="translate(-111.000000, -208.000000)" id="Map-Marker/Well/Unknown-Selected">
            <g transform="translate(109.000000, 208.000000)">
                <rect id="Container" x="0" y="0" width="24" height="24"></rect>
                <path d="M11.5,22.5125132 C13.2784649,17.8257795 20,14.1944204 20,9.5 C20,4.80557963 16.1944204,1 11.5,1 C6.80557963,1 3,4.80557963 3,9.5 C3,14.1944204 9.68499261,17.7367036 11.5,22.5125132 Z" id="Oval-Copy-12" stroke="#FFFFFF" fill="#FF00FF"></path>
                <g id="icon/navigation/arrow_upward_24px-copy-8" transform="translate(4.000000, 2.000000)">
                    <mask id="mask-2" fill="white">
                        <use xlink:href="#path-1"></use>
                    </mask>
                    <g id="icon/action/help_24px" fill-rule="nonzero"></g>
                    <g id="↳-Color" mask="url(#mask-2)" fill="#FFFFFF">
                        <rect id="Rectangle-3" x="0" y="0" width="15" height="15"></rect>
                    </g>
                </g>
            </g>
        </g>
    </g>
</svg>