<?xml version="1.0" encoding="UTF-8"?>
<svg width="978px" height="263px" viewBox="0 0 978 263" version="1.1" xmlns="http://www.w3.org/2000/svg" xmlns:xlink="http://www.w3.org/1999/xlink">
    <!-- Generator: sketchtool 53.2 (72643) - https://sketchapp.com -->
    <title>D96DAE34-18DE-455E-AB43-685B4F7D4BFE</title>
    <desc>Created with sketchtool.</desc>
    <defs>
        <linearGradient x1="50%" y1="0%" x2="50%" y2="100%" id="linearGradient-1">
            <stop stop-color="#FFFFFF" offset="0%"></stop>
            <stop stop-color="#43A907" stop-opacity="0" offset="100%"></stop>
        </linearGradient>
        <path d="M275.209261,249.181409 C255.613438,242.610717 232.390345,232.015278 235.655746,221.161843 C238.921148,210.308409 265.059094,184.426874 293.109478,145.178993 C321.159862,105.931113 324.541353,68.9641427 324.541353,40.9299421 C324.541353,12.8957416 316.873224,-6.57970844 306.952547,2.0745586 C297.03187,10.7288256 297.03187,60.6860064 269.22215,116.717668 C241.41243,172.74933 199.616688,221.161843 154.736074,221.161843 C109.85546,221.161843 66.8860531,173.925253 41.6956038,135.613055 C16.5051546,97.3008574 11.1586207,55.042427 5.54854396,49.4355869 C-7.00191628,66.78117 3.07810252,142.945236 22.3787741,178.392909 C41.6794458,213.840583 78.4795414,245.674991 128.970232,256.888671 C179.460923,268.102351 236.361857,262.190621 275.209261,249.181409 Z" id="path-2"></path>
        <filter x="-0.6%" y="-0.8%" width="101.2%" height="101.5%" filterUnits="objectBoundingBox" id="filter-3">
            <feGaussianBlur stdDeviation="1" in="SourceAlpha" result="shadowBlurInner1"></feGaussianBlur>
            <feOffset dx="-1" dy="2" in="shadowBlurInner1" result="shadowOffsetInner1"></feOffset>
            <feComposite in="shadowOffsetInner1" in2="SourceAlpha" operator="arithmetic" k2="-1" k3="1" result="shadowInnerInner1"></feComposite>
            <feColorMatrix values="0 0 0 0 0.980392157   0 0 0 0 0.980392157   0 0 0 0 0.752941176  0 0 0 1 0" type="matrix" in="shadowInnerInner1" result="shadowMatrixInner1"></feColorMatrix>
            <feOffset dx="0" dy="1" in="SourceAlpha" result="shadowOffsetInner2"></feOffset>
            <feComposite in="shadowOffsetInner2" in2="SourceAlpha" operator="arithmetic" k2="-1" k3="1" result="shadowInnerInner2"></feComposite>
            <feColorMatrix values="0 0 0 0 0.796078431   0 0 0 0 0.788235294   0 0 0 0 0.670588235  0 0 0 1 0" type="matrix" in="shadowInnerInner2" result="shadowMatrixInner2"></feColorMatrix>
            <feMerge>
                <feMergeNode in="shadowMatrixInner1"></feMergeNode>
                <feMergeNode in="shadowMatrixInner2"></feMergeNode>
            </feMerge>
        </filter>
    </defs>
    <g id="SSES" stroke="none" stroke-width="1" fill="none" fill-rule="evenodd">
        <g id="Home-MENU" transform="translate(-231.000000, -44.000000)">
            <g id="Group-25" transform="translate(228.000000, 41.000000)">
                <g id="Mockup/Logo">
                    <g id="Group" transform="translate(3.000000, 3.000000)">
                        <ellipse id="Oval-Copy-10" fill="#207003" cx="147.518797" cy="96.6216216" rx="95.887218" ry="96.6216216"></ellipse>
                        <ellipse id="Oval-Copy-13" fill="url(#linearGradient-1)" cx="147.518797" cy="65.7027027" rx="73.7593985" ry="57.972973"></ellipse>
                        <g id="Path-6">
                            <use fill="#CBC9AB" fill-rule="evenodd" xlink:href="#path-2"></use>
                            <use fill="black" fill-opacity="1" filter="url(#filter-3)" xlink:href="#path-2"></use>
                        </g>
                    </g>
                    <path d="M402.875034,115.032019 C402.875034,113.03996 402.169058,111.487729 400.757085,110.375281 C399.345113,109.262832 396.864482,108.111594 393.315119,106.921533 C389.765756,105.731472 386.864131,104.580234 384.610156,103.467786 C377.27826,99.8717309 373.612368,94.9304636 373.612368,88.6438354 C373.612368,85.5134568 374.525602,82.75178 376.352099,80.3587219 C378.178596,77.9656639 380.762856,76.1029872 384.104957,74.770636 C387.447058,73.4382848 391.203627,72.7721191 395.374776,72.7721191 C399.442294,72.7721191 403.088756,73.4964934 406.314272,74.9452637 C409.539788,76.3940339 412.046326,78.4572071 413.833961,81.134845 C415.621596,83.8124829 416.515401,86.8716706 416.515401,90.3125 L402.913896,90.3125 C402.913896,88.0099901 402.20792,86.224925 400.795947,84.957251 C399.383974,83.689577 397.473306,83.0557495 395.063884,83.0557495 C392.628555,83.0557495 390.704933,83.5925626 389.29296,84.6662048 C387.880987,85.7398471 387.175011,87.1045165 387.175011,88.7602539 C387.175011,90.2090242 387.952232,91.5219525 389.506698,92.6990784 C391.061163,93.8762042 393.794391,95.0921182 397.706462,96.3468567 C401.618534,97.6015952 404.831048,98.9533293 407.3441,100.4021 C413.458331,103.920542 416.515401,108.771262 416.515401,114.954407 C416.515401,119.895748 414.65007,123.776325 410.919353,126.596252 C407.188636,129.41618 402.07193,130.826123 395.569083,130.826123 C390.98341,130.826123 386.831754,130.004734 383.11399,128.361932 C379.396227,126.71913 376.598231,124.468396 374.719919,121.609662 C372.841606,118.750928 371.902464,115.458905 371.902464,111.733496 L385.581692,111.733496 C385.581692,114.760391 386.36539,116.991723 387.932809,118.427557 C389.500229,119.863392 392.045628,120.581299 395.569083,120.581299 C397.823058,120.581299 399.604189,120.096227 400.912531,119.126068 C402.220873,118.155909 402.875034,116.79124 402.875034,115.032019 Z M449.148131,125.50968 C446.376001,129.053993 442.632386,130.826123 437.917174,130.826123 C433.305593,130.826123 429.814575,129.487324 427.444015,126.809686 C425.073455,124.132048 423.888193,120.28381 423.888193,115.264856 L423.888193,88.0617432 L436.9845,88.0617432 L436.9845,115.342468 C436.9845,118.938523 438.733247,120.736523 442.230794,120.736523 C445.236094,120.736523 447.373452,119.662897 448.642932,117.515613 L448.642932,88.0617432 L461.816962,88.0617432 L461.816962,130.05 L449.536746,130.05 L449.148131,125.50968 Z M509.217041,109.366321 C509.217041,115.885787 507.746797,121.092227 504.806267,124.985797 C501.865736,128.879367 497.895432,130.826123 492.895235,130.826123 C489.034979,130.826123 485.861326,129.41618 483.374181,126.596252 L483.374181,146.193359 L470.277875,146.193359 L470.277875,88.0617432 L482.519229,88.0617432 L482.907844,91.9423584 C485.420896,88.8378507 488.724086,87.2856201 492.817512,87.2856201 C497.999063,87.2856201 502.027659,89.1935702 504.903421,93.0095276 C507.779182,96.825485 509.217041,102.070731 509.217041,108.745422 L509.217041,109.366321 Z M496.120734,108.551392 C496.120734,101.100573 493.944515,97.3752197 489.592012,97.3752197 C486.483081,97.3752197 484.410491,98.4876516 483.374181,100.712549 L483.374181,117.24397 C484.514122,119.572351 486.612619,120.736523 489.669735,120.736523 C493.840884,120.736523 495.991196,117.140523 496.120734,109.948413 L496.120734,108.551392 Z M541.61661,99.8976196 L537.302989,99.5871704 C533.183656,99.5871704 530.541104,100.880696 529.375255,103.467786 L529.375255,130.05 L516.278949,130.05 L516.278949,88.0617432 L528.559165,88.0617432 L528.986641,93.4557983 C531.1888,89.3423256 534.258823,87.2856201 538.196803,87.2856201 C539.595822,87.2856201 540.813468,87.4408432 541.849778,87.7512939 L541.61661,99.8976196 Z M567.137689,130.826123 C560.686657,130.826123 555.466322,128.905238 551.476528,125.063409 C547.486733,121.221581 545.491865,116.222105 545.491865,110.064832 L545.491865,108.978259 C545.491865,104.68369 546.288517,100.893661 547.881844,97.6080566 C549.475171,94.3224526 551.800358,91.7806751 554.857473,89.9826477 C557.914589,88.1846203 561.54162,87.2856201 565.738677,87.2856201 C571.645646,87.2856201 576.308973,89.1159587 579.728797,92.7766907 C583.148621,96.4374227 584.858507,101.540381 584.858507,108.085718 L584.858507,113.169324 L558.82134,113.169324 C559.28768,115.523575 560.311021,117.373317 561.891394,118.718604 C563.471768,120.06389 565.51845,120.736523 568.031502,120.736523 C572.176744,120.736523 575.415165,119.287775 577.746863,116.390234 L583.731525,123.452954 C582.099337,125.703722 579.787104,127.495255 576.794758,128.827606 C573.802412,130.159957 570.583421,130.826123 567.137689,130.826123 Z M565.660954,97.3752197 C561.826606,97.3752197 559.546758,99.9105297 558.82134,104.981226 L572.034231,104.981226 L572.034231,103.972266 C572.086047,101.876723 571.554945,100.253348 570.440912,99.1020935 C569.326878,97.9508386 567.733575,97.3752197 565.660954,97.3752197 Z M603.695433,88.0617432 L604.122908,92.9901245 C607.102301,89.1871026 611.104989,87.2856201 616.131094,87.2856201 C621.442185,87.2856201 625.030355,89.3940666 626.895714,93.6110229 C629.745567,89.3940666 633.864839,87.2856201 639.253653,87.2856201 C647.777305,87.2856201 652.155651,92.4338515 652.388821,102.730469 L652.388821,130.05 L639.253653,130.05 L639.253653,103.545398 C639.253653,101.398113 638.89095,99.8329476 638.165533,98.8498535 C637.440115,97.8667594 636.118839,97.3752197 634.201665,97.3752197 C631.610889,97.3752197 629.68079,98.5264574 628.41131,100.828967 L628.450172,101.372253 L628.450172,130.05 L615.315004,130.05 L615.315004,103.62301 C615.315004,101.423984 614.965255,99.8329476 614.265745,98.8498535 C613.566236,97.8667594 612.232006,97.3752197 610.263016,97.3752197 C607.749964,97.3752197 605.832819,98.5264574 604.511523,100.828967 L604.511523,130.05 L591.415217,130.05 L591.415217,88.0617432 L603.695433,88.0617432 Z M681.407444,130.826123 C674.956412,130.826123 669.736077,128.905238 665.746282,125.063409 C661.756488,121.221581 659.76162,116.222105 659.76162,110.064832 L659.76162,108.978259 C659.76162,104.68369 660.558272,100.893661 662.151599,97.6080566 C663.744926,94.3224526 666.070113,91.7806751 669.127228,89.9826477 C672.184343,88.1846203 675.811375,87.2856201 680.008432,87.2856201 C685.915401,87.2856201 690.578727,89.1159587 693.998552,92.7766907 C697.418376,96.4374227 699.128262,101.540381 699.128262,108.085718 L699.128262,113.169324 L673.091095,113.169324 C673.557435,115.523575 674.580776,117.373317 676.161149,118.718604 C677.741522,120.06389 679.788205,120.736523 682.301257,120.736523 C686.446499,120.736523 689.68492,119.287775 692.016618,116.390234 L698.00128,123.452954 C696.369091,125.703722 694.056859,127.495255 691.064513,128.827606 C688.072167,130.159957 684.853176,130.826123 681.407444,130.826123 Z M679.930709,97.3752197 C676.096361,97.3752197 673.816512,99.9105297 673.091095,104.981226 L686.303986,104.981226 L686.303986,103.972266 C686.355801,101.876723 685.8247,100.253348 684.710667,99.1020935 C683.596633,97.9508386 682.00333,97.3752197 679.930709,97.3752197 Z M756.388252,115.032019 C756.388252,113.03996 755.682276,111.487729 754.270304,110.375281 C752.858331,109.262832 750.3777,108.111594 746.828337,106.921533 C743.278974,105.731472 740.377349,104.580234 738.123374,103.467786 C730.791478,99.8717309 727.125586,94.9304636 727.125586,88.6438354 C727.125586,85.5134568 728.03882,82.75178 729.865317,80.3587219 C731.691814,77.9656639 734.276074,76.1029872 737.618175,74.770636 C740.960276,73.4382848 744.716845,72.7721191 748.887994,72.7721191 C752.955512,72.7721191 756.601974,73.4964934 759.82749,74.9452637 C763.053006,76.3940339 765.559544,78.4572071 767.347179,81.134845 C769.134815,83.8124829 770.028619,86.8716706 770.028619,90.3125 L756.427114,90.3125 C756.427114,88.0099901 755.721138,86.224925 754.309165,84.957251 C752.897192,83.689577 750.986524,83.0557495 748.577102,83.0557495 C746.141773,83.0557495 744.218151,83.5925626 742.806178,84.6662048 C741.394205,85.7398471 740.688229,87.1045165 740.688229,88.7602539 C740.688229,90.2090242 741.46545,91.5219525 743.019916,92.6990784 C744.574381,93.8762042 747.307609,95.0921182 751.21968,96.3468567 C755.131752,97.6015952 758.344266,98.9533293 760.857318,100.4021 C766.971549,103.920542 770.028619,108.771262 770.028619,114.954407 C770.028619,119.895748 768.163288,123.776325 764.432571,126.596252 C760.701854,129.41618 755.585148,130.826123 749.082301,130.826123 C744.496628,130.826123 740.344972,130.004734 736.627208,128.361932 C732.909445,126.71913 730.111449,124.468396 728.233137,121.609662 C726.354824,118.750928 725.415682,115.458905 725.415682,111.733496 L739.09491,111.733496 C739.09491,114.760391 739.878608,116.991723 741.446027,118.427557 C743.013447,119.863392 745.558846,120.581299 749.082301,120.581299 C751.336276,120.581299 753.117408,120.096227 754.425749,119.126068 C755.734091,118.155909 756.388252,116.79124 756.388252,115.032019 Z M775.963545,108.66781 C775.963545,104.476725 776.779627,100.744904 778.411816,97.4722351 C780.044005,94.1995666 782.388622,91.6836595 785.445737,89.9244385 C788.502853,88.1652174 792.091023,87.2856201 796.210357,87.2856201 C802.505942,87.2856201 807.467203,89.232376 811.094289,93.125946 C814.721376,97.0195161 816.534891,102.316503 816.534891,109.017065 L816.534891,109.482739 C816.534891,116.028076 814.714899,121.221581 811.074859,125.063409 C807.434819,128.905238 802.505942,130.826123 796.28808,130.826123 C790.303388,130.826123 785.49757,129.03459 781.870484,125.451471 C778.243398,121.868352 776.287392,117.011163 776.002406,110.879761 L775.963545,108.66781 Z M789.059851,109.482739 C789.059851,113.363374 789.668674,116.20913 790.886339,118.020093 C792.104004,119.831056 793.904566,120.736523 796.28808,120.736523 C800.951476,120.736523 803.334954,117.153458 803.438585,109.987219 L803.438585,108.66781 C803.438585,101.139379 801.0292,97.3752197 796.210357,97.3752197 C791.831946,97.3752197 789.461421,100.621969 789.098713,107.115564 L789.059851,109.482739 Z M848.545846,125.50968 C845.773716,129.053993 842.030101,130.826123 837.314889,130.826123 C832.703308,130.826123 829.21229,129.487324 826.84173,126.809686 C824.47117,124.132048 823.285908,120.28381 823.285908,115.264856 L823.285908,88.0617432 L836.382214,88.0617432 L836.382214,115.342468 C836.382214,118.938523 838.130962,120.736523 841.628509,120.736523 C844.633809,120.736523 846.771167,119.662897 848.040647,117.515613 L848.040647,88.0617432 L861.214676,88.0617432 L861.214676,130.05 L848.93446,130.05 L848.545846,125.50968 Z M895.013257,99.8976196 L890.699637,99.5871704 C886.580303,99.5871704 883.937752,100.880696 882.771903,103.467786 L882.771903,130.05 L869.675596,130.05 L869.675596,88.0617432 L881.955812,88.0617432 L882.383288,93.4557983 C884.585448,89.3423256 887.655471,87.2856201 891.59345,87.2856201 C892.992469,87.2856201 894.210116,87.4408432 895.246426,87.7512939 L895.013257,99.8976196 Z M917.969495,120.736523 C919.808946,120.736523 921.233852,120.238516 922.244254,119.242487 C923.254657,118.246457 923.746897,116.855917 923.720989,115.070825 L936.001205,115.070825 C936.001205,119.675845 934.34961,123.452939 931.046371,126.402222 C927.743132,129.351504 923.487846,130.826123 918.280387,130.826123 C912.166156,130.826123 907.347385,128.911705 903.82393,125.082812 C900.300475,121.25392 898.538774,115.950465 898.538774,109.17229 L898.538774,108.629004 C898.538774,104.386177 899.322472,100.64142 900.889891,97.3946228 C902.457311,94.1478252 904.717729,91.651321 907.671213,89.9050354 C910.624697,88.1587498 914.122192,87.2856201 918.163803,87.2856201 C923.63034,87.2856201 927.969824,88.7990449 931.182386,91.8259399 C934.394948,94.852835 936.001205,98.9533107 936.001205,104.12749 L923.720989,104.12749 C923.720989,101.954335 923.189888,100.285687 922.12767,99.1214966 C921.065452,97.9573062 919.640546,97.3752197 917.852911,97.3752197 C914.458995,97.3752197 912.477081,99.5354073 911.90711,103.855847 C911.725756,105.227005 911.63508,107.115552 911.63508,109.521545 C911.63508,113.738502 912.140274,116.661869 913.150677,118.291736 C914.161079,119.921602 915.767336,120.736523 917.969495,120.736523 Z M963.076701,130.826123 C956.625669,130.826123 951.405334,128.905238 947.415539,125.063409 C943.425745,121.221581 941.430877,116.222105 941.430877,110.064832 L941.430877,108.978259 C941.430877,104.68369 942.227529,100.893661 943.820856,97.6080566 C945.414183,94.3224526 947.73937,91.7806751 950.796485,89.9826477 C953.8536,88.1846203 957.480632,87.2856201 961.677689,87.2856201 C967.584658,87.2856201 972.247984,89.1159587 975.667809,92.7766907 C979.087633,96.4374227 980.797519,101.540381 980.797519,108.085718 L980.797519,113.169324 L954.760352,113.169324 C955.226692,115.523575 956.250033,117.373317 957.830406,118.718604 C959.410779,120.06389 961.457462,120.736523 963.970514,120.736523 C968.115755,120.736523 971.354177,119.287775 973.685875,116.390234 L979.670537,123.452954 C978.038348,125.703722 975.726116,127.495255 972.73377,128.827606 C969.741424,130.159957 966.522433,130.826123 963.076701,130.826123 Z M961.599966,97.3752197 C957.765618,97.3752197 955.485769,99.9105297 954.760352,104.981226 L967.973243,104.981226 L967.973243,103.972266 C968.025058,101.876723 967.493957,100.253348 966.379924,99.1020935 C965.26589,97.9508386 963.672587,97.3752197 961.599966,97.3752197 Z M416.240261,200.031604 L394.788745,200.031604 L394.788745,213.497339 L420.126405,213.497339 L420.126405,223.975 L381.148378,223.975 L381.148378,167.473242 L420.204128,167.473242 L420.204128,177.989709 L394.788745,177.989709 L394.788745,189.903198 L416.240261,189.903198 L416.240261,200.031604 Z M438.30268,181.986743 L438.730156,186.915125 C441.631825,183.112103 445.634514,181.21062 450.738342,181.21062 C455.116753,181.21062 458.387558,182.517081 460.550856,185.130042 C462.714154,187.743002 463.834648,191.67532 463.912371,196.927112 L463.912371,223.975 L450.777203,223.975 L450.777203,197.470398 C450.777203,195.348984 450.349732,193.790286 449.494776,192.794257 C448.63982,191.798227 447.085378,191.30022 444.831403,191.30022 C442.266535,191.30022 440.362343,192.30917 439.11877,194.3271 L439.11877,223.975 L426.022464,223.975 L426.022464,181.986743 L438.30268,181.986743 Z M492.697822,224.751123 C486.246791,224.751123 481.026456,222.830238 477.036661,218.988409 C473.046866,215.146581 471.051999,210.147105 471.051999,203.989832 L471.051999,202.903259 C471.051999,198.60869 471.84865,194.818661 473.441977,191.533057 C475.035304,188.247453 477.360491,185.705675 480.417606,183.907648 C483.474722,182.10962 487.101754,181.21062 491.29881,181.21062 C497.205779,181.21062 501.869106,183.040959 505.28893,186.701691 C508.708754,190.362423 510.41864,195.465381 510.41864,202.010718 L510.41864,207.094324 L484.381474,207.094324 C484.847813,209.448575 485.871154,211.298317 487.451528,212.643604 C489.031901,213.98889 491.078583,214.661523 493.591636,214.661523 C497.736877,214.661523 500.975298,213.212775 503.306996,210.315234 L509.291659,217.377954 C507.65947,219.628722 505.347237,221.420255 502.354891,222.752606 C499.362545,224.084957 496.143554,224.751123 492.697822,224.751123 Z M491.221087,191.30022 C487.386739,191.30022 485.106891,193.83553 484.381474,198.906226 L497.594364,198.906226 L497.594364,197.897266 C497.64618,195.801723 497.115079,194.178348 496.001045,193.027094 C494.887011,191.875839 493.293708,191.30022 491.221087,191.30022 Z M542.312997,193.82262 L537.999377,193.51217 C533.880043,193.51217 531.237491,194.805696 530.071642,197.392786 L530.071642,223.975 L516.975336,223.975 L516.975336,181.986743 L529.255552,181.986743 L529.683028,187.380798 C531.885187,183.267326 534.95521,181.21062 538.89319,181.21062 C540.292209,181.21062 541.509855,181.365843 542.546165,181.676294 L542.312997,193.82262 Z M545.955098,202.670422 C545.955098,198.427595 546.654597,194.676371 548.053616,191.416638 C549.452635,188.156905 551.460456,185.640998 554.077139,183.868842 C556.693823,182.096685 559.737939,181.21062 563.209578,181.21062 C567.58799,181.21062 571.007762,182.685239 573.468999,185.634521 L573.935337,181.986743 L585.826938,181.986743 L585.826938,222.383948 C585.826938,226.083486 584.965518,229.297897 583.242652,232.027277 C581.519786,234.756656 579.026202,236.852168 575.761825,238.313873 C572.497447,239.775579 568.714971,240.506421 564.414283,240.506421 C561.33126,240.506421 558.345436,239.924334 555.456721,238.760144 C552.568006,237.595954 550.359402,236.082529 548.830845,234.219824 L554.310308,226.536206 C556.745637,229.407876 559.958151,230.843689 563.947946,230.843689 C569.751284,230.843689 572.652909,227.86858 572.652909,221.918274 L572.652909,220.598865 C570.139857,223.367051 566.966204,224.751123 563.131856,224.751123 C558.002119,224.751123 553.85694,222.791432 550.696194,218.871991 C547.535447,214.95255 545.955098,209.707304 545.955098,203.136096 L545.955098,202.670422 Z M559.090265,203.485352 C559.090265,206.926181 559.73795,209.649052 561.033338,211.654047 C562.328726,213.659041 564.142241,214.661523 566.47394,214.661523 C569.297885,214.661523 571.357521,213.71725 572.652909,211.828674 L572.652909,194.171875 C571.383429,192.257429 569.3497,191.30022 566.551663,191.30022 C564.219964,191.30022 562.393495,192.341508 561.072199,194.424115 C559.750903,196.506722 559.090265,199.527104 559.090265,203.485352 Z M611.270295,205.658496 L618.265355,181.986743 L632.294336,181.986743 L615.156439,230.998914 L614.418072,232.783997 C611.982743,238.216885 607.682119,240.933289 601.516073,240.933289 C599.806161,240.933289 598.005599,240.674583 596.114332,240.157166 L596.114332,230.804883 L597.824236,230.804883 C599.663687,230.804883 601.069161,230.53971 602.040702,230.009357 C603.012243,229.479003 603.731173,228.528262 604.197512,227.157104 L605.246771,224.363062 L590.634869,181.986743 L604.624988,181.986743 L611.270295,205.658496 Z M687.689004,208.957019 C687.689004,206.96496 686.983029,205.412729 685.571056,204.300281 C684.159083,203.187832 681.678452,202.036594 678.129089,200.846533 C674.579726,199.656472 671.678101,198.505234 669.424126,197.392786 C662.092231,193.796731 658.426338,188.855464 658.426338,182.568835 C658.426338,179.438457 659.339573,176.67678 661.166069,174.283722 C662.992566,171.890664 665.576827,170.027987 668.918927,168.695636 C672.261028,167.363285 676.017597,166.697119 680.188746,166.697119 C684.256264,166.697119 687.902726,167.421493 691.128242,168.870264 C694.353758,170.319034 696.860296,172.382207 698.647931,175.059845 C700.435567,177.737483 701.329371,180.796671 701.329371,184.2375 L687.727866,184.2375 C687.727866,181.93499 687.02189,180.149925 685.609917,178.882251 C684.197944,177.614577 682.287276,176.98075 679.877854,176.98075 C677.442525,176.98075 675.518903,177.517563 674.10693,178.591205 C672.694957,179.664847 671.988981,181.029516 671.988981,182.685254 C671.988981,184.134024 672.766202,185.446953 674.320668,186.624078 C675.875133,187.801204 678.608361,189.017118 682.520432,190.271857 C686.432504,191.526595 689.645018,192.878329 692.15807,194.3271 C698.272301,197.845542 701.329371,202.696262 701.329371,208.879407 C701.329371,213.820748 699.46404,217.701325 695.733323,220.521252 C692.002606,223.34118 686.8859,224.751123 680.383053,224.751123 C675.79738,224.751123 671.645724,223.929734 667.927961,222.286932 C664.210197,220.64413 661.412201,218.393396 659.533889,215.534662 C657.655576,212.675928 656.716434,209.383905 656.716434,205.658496 L670.395662,205.658496 C670.395662,208.685391 671.17936,210.916723 672.746779,212.352557 C674.314199,213.788392 676.859598,214.506299 680.383053,214.506299 C682.637028,214.506299 684.41816,214.021227 685.726501,213.051068 C687.034843,212.080909 687.689004,210.71624 687.689004,208.957019 Z M729.259846,224.751123 C722.808814,224.751123 717.588479,222.830238 713.598685,218.988409 C709.60889,215.146581 707.614022,210.147105 707.614022,203.989832 L707.614022,202.903259 C707.614022,198.60869 708.410674,194.818661 710.004001,191.533057 C711.597328,188.247453 713.922515,185.705675 716.97963,183.907648 C720.036746,182.10962 723.663777,181.21062 727.860834,181.21062 C733.767803,181.21062 738.43113,183.040959 741.850954,186.701691 C745.270778,190.362423 746.980664,195.465381 746.980664,202.010718 L746.980664,207.094324 L720.943497,207.094324 C721.409837,209.448575 722.433178,211.298317 724.013551,212.643604 C725.593925,213.98889 727.640607,214.661523 730.153659,214.661523 C734.298901,214.661523 737.537322,213.212775 739.86902,210.315234 L745.853682,217.377954 C744.221494,219.628722 741.909261,221.420255 738.916915,222.752606 C735.924569,224.084957 732.705578,224.751123 729.259846,224.751123 Z M727.783111,191.30022 C723.948763,191.30022 721.668915,193.83553 720.943497,198.906226 L734.156388,198.906226 L734.156388,197.897266 C734.208203,195.801723 733.677102,194.178348 732.563069,193.027094 C731.449035,191.875839 729.855732,191.30022 727.783111,191.30022 Z M778.875034,193.82262 L774.561414,193.51217 C770.442081,193.51217 767.799529,194.805696 766.63368,197.392786 L766.63368,223.975 L753.537373,223.975 L753.537373,181.986743 L765.817589,181.986743 L766.245065,187.380798 C768.447225,183.267326 771.517248,181.21062 775.455227,181.21062 C776.854246,181.21062 778.071893,181.365843 779.108203,181.676294 L778.875034,193.82262 Z M802.258748,208.413733 L808.904055,181.986743 L822.699867,181.986743 L808.981778,223.975 L795.613442,223.975 L781.895352,181.986743 L795.730026,181.986743 L802.258748,208.413733 Z M841.614516,223.975 L828.479348,223.975 L828.479348,181.986743 L841.614516,181.986743 L841.614516,223.975 Z M827.702119,171.159827 C827.702119,169.297122 828.375711,167.770762 829.722914,166.580701 C831.070118,165.390639 832.818865,164.795618 834.969209,164.795618 C837.119553,164.795618 838.8683,165.390639 840.215504,166.580701 C841.562707,167.770762 842.236299,169.297122 842.236299,171.159827 C842.236299,173.022531 841.562707,174.548891 840.215504,175.738953 C838.8683,176.929014 837.119553,177.524036 834.969209,177.524036 C832.818865,177.524036 831.070118,176.929014 829.722914,175.738953 C828.375711,174.548891 827.702119,173.022531 827.702119,171.159827 Z M868.651178,214.661523 C870.490629,214.661523 871.915534,214.163516 872.925937,213.167487 C873.936339,212.171457 874.428579,210.780917 874.402671,208.995825 L886.682887,208.995825 C886.682887,213.600845 885.031293,217.377939 881.728053,220.327222 C878.424814,223.276504 874.169529,224.751123 868.962069,224.751123 C862.847838,224.751123 858.029068,222.836705 854.505613,219.007812 C850.982157,215.17892 849.220456,209.875465 849.220456,203.09729 L849.220456,202.554004 C849.220456,198.311177 850.004154,194.56642 851.571574,191.319623 C853.138993,188.072825 855.399411,185.576321 858.352895,183.830035 C861.30638,182.08375 864.803875,181.21062 868.845485,181.21062 C874.312022,181.21062 878.651506,182.724045 881.864068,185.75094 C885.07663,188.777835 886.682887,192.878311 886.682887,198.05249 L874.402671,198.05249 C874.402671,195.879335 873.87157,194.210687 872.809352,193.046497 C871.747134,191.882306 870.322229,191.30022 868.534593,191.30022 C865.140677,191.30022 863.158763,193.460407 862.588793,197.780847 C862.407438,199.152005 862.316763,201.040552 862.316763,203.446545 C862.316763,207.663502 862.821956,210.586869 863.832359,212.216736 C864.842761,213.846602 866.449018,214.661523 868.651178,214.661523 Z M913.758439,224.751123 C907.307407,224.751123 902.087072,222.830238 898.097277,218.988409 C894.107482,215.146581 892.112615,210.147105 892.112615,203.989832 L892.112615,202.903259 C892.112615,198.60869 892.909266,194.818661 894.502594,191.533057 C896.095921,188.247453 898.421107,185.705675 901.478223,183.907648 C904.535338,182.10962 908.16237,181.21062 912.359427,181.21062 C918.266395,181.21062 922.929722,183.040959 926.349546,186.701691 C929.76937,190.362423 931.479257,195.465381 931.479257,202.010718 L931.479257,207.094324 L905.44209,207.094324 C905.908429,209.448575 906.931771,211.298317 908.512144,212.643604 C910.092517,213.98889 912.139199,214.661523 914.652252,214.661523 C918.797493,214.661523 922.035914,213.212775 924.367613,210.315234 L930.352275,217.377954 C928.720086,219.628722 926.407853,221.420255 923.415507,222.752606 C920.423161,224.084957 917.20417,224.751123 913.758439,224.751123 Z M912.281704,191.30022 C908.447355,191.30022 906.167507,193.83553 905.44209,198.906226 L918.65498,198.906226 L918.65498,197.897266 C918.706796,195.801723 918.175695,194.178348 917.061661,193.027094 C915.947628,191.875839 914.354324,191.30022 912.281704,191.30022 Z M959.95382,212.17793 C959.95382,211.065481 959.370904,210.172949 958.205055,209.500305 C957.039206,208.827662 954.824126,208.129158 951.559748,207.404773 C948.29537,206.680388 945.601004,205.729647 943.476568,204.552521 C941.352132,203.375395 939.732921,201.946049 938.618888,200.264441 C937.504854,198.582833 936.947845,196.65548 936.947845,194.482324 C936.947845,190.62756 938.541149,187.451955 941.727803,184.955414 C944.914457,182.458872 949.085544,181.21062 954.241188,181.21062 C959.785448,181.21062 964.241515,182.46534 967.609524,184.974817 C970.977533,187.484294 972.661512,190.782784 972.661512,194.870386 L959.526344,194.870386 C959.526344,191.507169 957.751689,189.825586 954.202326,189.825586 C952.829215,189.825586 951.676337,190.207176 950.743658,190.970367 C949.810978,191.733559 949.344646,192.6843 949.344646,193.82262 C949.344646,194.98681 949.914608,195.931084 951.054549,196.655469 C952.194491,197.379854 954.014483,197.974876 956.514582,198.440552 C959.014681,198.906228 961.21033,199.462444 963.101597,200.109216 C969.42309,202.282372 972.583789,206.175883 972.583789,211.789868 C972.583789,215.618761 970.880379,218.736157 967.473509,221.142151 C964.066639,223.548144 959.655909,224.751123 954.241188,224.751123 C950.640009,224.751123 947.427495,224.10436 944.60355,222.810815 C941.779604,221.517271 939.577478,219.758076 937.997104,217.533179 C936.416731,215.308282 935.626556,212.967 935.626556,210.509265 L947.867911,210.509265 C947.919726,212.449582 948.567411,213.865993 949.810983,214.758539 C951.054555,215.651085 952.647859,216.097351 954.590941,216.097351 C956.378576,216.097351 957.719282,215.735164 958.6131,215.010779 C959.506918,214.286394 959.95382,213.34212 959.95382,212.17793 Z" id="SupremeSourceEnergyServices" fill="#207003" fill-rule="nonzero"></path>
                </g>
            </g>
        </g>
    </g>
</svg>