<svg xmlns="http://www.w3.org/2000/svg" xmlns:xlink="http://www.w3.org/1999/xlink" width="136" height="40" viewBox="0 0 136 40">
    <defs>
        <linearGradient id="a" x1="50%" x2="50%" y1="0%" y2="100%">
            <stop offset="0%" stop-color="#FFF"/>
            <stop offset="100%" stop-color="#43A907" stop-opacity="0"/>
        </linearGradient>
        <path id="b" d="M37.312 32.237c-2.657-.85-5.805-2.221-5.363-3.625.443-1.404 3.987-4.753 7.79-9.83C43.542 13.704 44 8.922 44 5.295 44 1.668 42.96-.85 41.615.268 40.27 1.388 40.27 7.851 36.5 15.1c-3.77 7.249-9.437 13.512-15.522 13.512-6.084 0-11.91-6.111-15.325-11.068-3.415-4.956-4.14-10.423-4.9-11.148C-.95 8.64.416 18.493 3.033 23.079s7.606 8.704 14.451 10.155c6.846 1.45 14.56.686 19.827-.997z"/>
        <filter id="c" width="109.1%" height="111.8%" x="-4.5%" y="-5.9%" filterUnits="objectBoundingBox">
            <feGaussianBlur in="SourceAlpha" result="shadowBlurInner1" stdDeviation="1"/>
            <feOffset dx="-1" dy="2" in="shadowBlurInner1" result="shadowOffsetInner1"/>
            <feComposite in="shadowOffsetInner1" in2="SourceAlpha" k2="-1" k3="1" operator="arithmetic" result="shadowInnerInner1"/>
            <feColorMatrix in="shadowInnerInner1" result="shadowMatrixInner1" values="0 0 0 0 0.980392157 0 0 0 0 0.980392157 0 0 0 0 0.752941176 0 0 0 1 0"/>
            <feOffset dy="1" in="SourceAlpha" result="shadowOffsetInner2"/>
            <feComposite in="shadowOffsetInner2" in2="SourceAlpha" k2="-1" k3="1" operator="arithmetic" result="shadowInnerInner2"/>
            <feColorMatrix in="shadowInnerInner2" result="shadowMatrixInner2" values="0 0 0 0 0.796078431 0 0 0 0 0.788235294 0 0 0 0 0.670588235 0 0 0 1 0"/>
            <feMerge>
                <feMergeNode in="shadowMatrixInner1"/>
                <feMergeNode in="shadowMatrixInner2"/>
            </feMerge>
        </filter>
    </defs>
    <g fill="none" fill-rule="evenodd">
        <g transform="translate(3 3)">
            <ellipse cx="20" cy="12.5" fill="#207003" rx="13" ry="12.5"/>
            <ellipse cx="20" cy="8.5" fill="url(#a)" rx="10" ry="7.5"/>
            <use fill="#CBC9AB" xlink:href="#b"/>
            <use fill="#000" filter="url(#c)" xlink:href="#b"/>
        </g>
        <path fill="#207003" fill-rule="nonzero" d="M55.682 15.921c0-.275-.098-.49-.293-.644-.195-.154-.538-.313-1.028-.478a9.868 9.868 0 0 1-1.203-.478c-1.014-.498-1.52-1.182-1.52-2.052 0-.433.126-.815.378-1.147.253-.33.61-.589 1.072-.773a4.17 4.17 0 0 1 1.557-.277c.562 0 1.066.1 1.512.301.446.2.792.486 1.04.857.247.37.37.794.37 1.27h-1.88c0-.319-.097-.566-.292-.741-.196-.176-.46-.263-.793-.263-.336 0-.602.074-.797.223a.684.684 0 0 0-.293.566c0 .2.107.382.322.545.215.163.593.332 1.134.505.54.174.984.361 1.332.561.845.487 1.267 1.159 1.267 2.015 0 .684-.258 1.22-.773 1.611-.516.39-1.223.585-2.122.585a4.21 4.21 0 0 1-1.721-.34c-.514-.228-.9-.54-1.16-.935a2.435 2.435 0 0 1-.39-1.367h1.89c0 .419.11.728.326.926.216.2.568.298 1.055.298.312 0 .558-.067.739-.201a.665.665 0 0 0 .27-.567zm6.395 1.45c-.383.491-.9.736-1.552.736-.637 0-1.12-.185-1.447-.555-.328-.371-.492-.904-.492-1.598v-3.766h1.81v3.776c0 .498.242.747.725.747.416 0 .711-.149.887-.446v-4.077h1.82V18h-1.697l-.054-.628zm8.303-2.234c0 .903-.204 1.623-.61 2.162-.406.539-.955.808-1.646.808-.534 0-.972-.195-1.316-.585v2.712h-1.81v-8.046h1.692l.053.538c.348-.43.804-.645 1.37-.645.716 0 1.273.264 1.67.792.398.528.597 1.254.597 2.178v.086zm-1.81-.113c0-1.03-.301-1.546-.903-1.546-.43 0-.716.154-.86.461v2.289c.158.322.448.483.87.483.577 0 .875-.498.893-1.493v-.194zm6.288-1.197l-.597-.043c-.569 0-.934.179-1.095.537V18h-1.81v-5.812h1.697l.059.747c.304-.57.729-.854 1.273-.854.193 0 .362.022.505.065l-.032 1.68zm3.527 4.28c-.892 0-1.613-.265-2.165-.797-.551-.532-.827-1.224-.827-2.076v-.15c0-.595.11-1.12.33-1.574.22-.455.542-.807.965-1.056.422-.249.923-.373 1.504-.373.816 0 1.46.253 1.933.76.473.507.71 1.213.71 2.119v.704h-3.6c.065.325.206.581.425.768.218.186.501.279.848.279.573 0 1.02-.2 1.343-.602l.827.978c-.225.311-.545.56-.958.744a3.24 3.24 0 0 1-1.335.276zm-.204-4.63c-.53 0-.845.351-.946 1.053h1.827v-.14c.007-.29-.067-.514-.22-.673-.155-.16-.375-.24-.661-.24zm5.257-1.289l.059.683c.411-.527.965-.79 1.66-.79.733 0 1.23.292 1.487.876.394-.584.963-.876 1.708-.876 1.178 0 1.783.713 1.816 2.138V18h-1.816v-3.668c0-.298-.05-.514-.15-.65-.1-.136-.283-.204-.548-.204-.358 0-.625.159-.8.478l.005.075V18h-1.815v-3.658c0-.304-.049-.524-.145-.66-.097-.136-.282-.204-.554-.204-.347 0-.612.159-.795.478V18h-1.81v-5.812h1.698zm10.74 5.92c-.891 0-1.613-.266-2.164-.798-.552-.532-.827-1.224-.827-2.076v-.15c0-.595.11-1.12.33-1.574.22-.455.541-.807.964-1.056.423-.249.924-.373 1.504-.373.816 0 1.46.253 1.933.76.473.507.71 1.213.71 2.119v.704h-3.6c.065.325.207.581.425.768.219.186.501.279.849.279.573 0 1.02-.2 1.343-.602l.827.978c-.226.311-.545.56-.959.744a3.24 3.24 0 0 1-1.335.276zm-.204-4.63c-.53 0-.845.35-.945 1.052h1.826v-.14c.007-.29-.066-.514-.22-.673-.154-.16-.374-.24-.66-.24zm10.567 2.443c0-.275-.097-.49-.292-.644-.195-.154-.538-.313-1.029-.478a9.868 9.868 0 0 1-1.203-.478c-1.013-.498-1.52-1.182-1.52-2.052 0-.433.126-.815.379-1.147.252-.33.61-.589 1.071-.773a4.17 4.17 0 0 1 1.558-.277c.562 0 1.066.1 1.512.301.446.2.792.486 1.04.857.246.37.37.794.37 1.27h-1.88c0-.319-.098-.566-.293-.741-.195-.176-.46-.263-.792-.263-.337 0-.603.074-.798.223a.684.684 0 0 0-.292.566c0 .2.107.382.322.545.215.163.592.332 1.133.505.54.174.985.361 1.332.561.845.487 1.268 1.159 1.268 2.015 0 .684-.258 1.22-.774 1.611-.515.39-1.223.585-2.121.585a4.21 4.21 0 0 1-1.722-.34c-.514-.228-.9-.54-1.16-.935a2.435 2.435 0 0 1-.39-1.367h1.891c0 .419.109.728.325.926.217.2.569.298 1.056.298.311 0 .557-.067.738-.201a.665.665 0 0 0 .271-.567zm2.706-.88c0-.58.113-1.097.338-1.55a2.42 2.42 0 0 1 .973-1.045c.422-.243.918-.365 1.487-.365.87 0 1.556.27 2.057.808.502.54.752 1.272.752 2.2v.064c0 .906-.251 1.625-.754 2.157s-1.185.797-2.044.797c-.827 0-1.491-.248-1.993-.743-.5-.496-.771-1.169-.81-2.017l-.006-.306zm1.81.112c0 .537.084.931.252 1.182.169.25.418.376.747.376.645 0 .974-.496.988-1.488v-.182c0-1.042-.333-1.563-.999-1.563-.605 0-.932.449-.983 1.348l-.005.327zm8.222 2.219c-.383.49-.9.735-1.553.735-.637 0-1.12-.185-1.447-.555-.328-.371-.492-.904-.492-1.598v-3.766h1.81v3.776c0 .498.242.747.726.747.415 0 .71-.149.886-.446v-4.077h1.82V18h-1.697l-.053-.628zm6.422-3.545l-.596-.043c-.57 0-.935.179-1.096.537V18h-1.81v-5.812h1.697l.06.747c.304-.57.728-.854 1.272-.854.194 0 .362.022.505.065l-.032 1.68zm3.173 2.884c.254 0 .451-.069.59-.207.14-.138.208-.33.205-.577h1.697c0 .637-.228 1.16-.685 1.568-.456.408-1.044.612-1.764.612-.845 0-1.511-.265-1.998-.794-.487-.53-.73-1.264-.73-2.203v-.075c0-.587.108-1.105.324-1.555.217-.45.53-.795.937-1.036.409-.242.892-.363 1.45-.363.756 0 1.356.21 1.8.628.444.42.666.987.666 1.703h-1.697c0-.3-.074-.532-.22-.693-.147-.16-.344-.241-.591-.241-.47 0-.743.299-.822.897-.025.19-.038.45-.038.784 0 .583.07.988.21 1.214.14.225.361.338.666.338zm6.234 1.396c-.891 0-1.613-.265-2.164-.797-.552-.532-.828-1.224-.828-2.076v-.15c0-.595.11-1.12.33-1.574.221-.455.542-.807.965-1.056.422-.249.924-.373 1.504-.373.816 0 1.46.253 1.933.76.473.507.71 1.213.71 2.119v.704h-3.6c.065.325.207.581.425.768.218.186.501.279.849.279.573 0 1.02-.2 1.342-.602l.828.978c-.226.311-.546.56-.96.744a3.24 3.24 0 0 1-1.334.276zm-.204-4.63c-.53 0-.845.351-.945 1.053h1.826v-.14c.007-.29-.066-.514-.22-.673-.154-.16-.374-.24-.66-.24zM57.53 27.687h-2.965v1.864h3.502V31H52.68v-7.82h5.398v1.455h-3.513v1.65h2.965v1.401zm3.05-2.498l.059.683c.4-.527.954-.79 1.66-.79.604 0 1.056.18 1.355.543.3.361.454.905.465 1.632V31h-1.815v-3.668c0-.294-.06-.51-.178-.648s-.333-.206-.644-.206c-.355 0-.618.14-.79.418V31h-1.81v-5.812h1.697zm7.517 5.92c-.891 0-1.613-.266-2.164-.798-.552-.532-.827-1.224-.827-2.076v-.15c0-.595.11-1.12.33-1.574.22-.455.542-.807.964-1.056.423-.249.924-.373 1.504-.373.816 0 1.461.253 1.934.76.472.507.709 1.213.709 2.119v.704h-3.599c.064.325.206.581.424.768.219.186.502.279.849.279.573 0 1.02-.2 1.343-.602l.827.978c-.226.311-.545.56-.959.744a3.24 3.24 0 0 1-1.335.276zm-.204-4.63c-.53 0-.845.35-.945 1.052h1.826v-.14c.007-.29-.066-.514-.22-.673-.154-.16-.374-.24-.66-.24zm7.062.349l-.596-.043c-.57 0-.935.179-1.096.537V31h-1.81v-5.812h1.697l.06.747c.304-.57.728-.854 1.272-.854.194 0 .362.022.505.065l-.032 1.68zm.503 1.224c0-.587.097-1.106.29-1.557.194-.452.471-.8.833-1.045a2.195 2.195 0 0 1 1.262-.368c.605 0 1.078.204 1.418.612l.064-.505h1.644v5.592c0 .512-.12.957-.357 1.335-.238.377-.583.667-1.034.87-.451.202-.974.303-1.569.303-.426 0-.838-.08-1.238-.242-.399-.16-.704-.37-.915-.628l.757-1.064c.337.398.78.597 1.332.597.802 0 1.203-.412 1.203-1.236v-.182a1.7 1.7 0 0 1-1.316.574c-.709 0-1.282-.27-1.719-.813-.436-.543-.655-1.269-.655-2.178v-.065zm1.816.113c0 .476.09.853.268 1.13.18.278.43.417.752.417.39 0 .675-.13.854-.392v-2.444c-.175-.265-.456-.397-.843-.397-.322 0-.575.144-.757.432-.183.288-.274.706-.274 1.254zm7.212.3l.966-3.276h1.94l-2.37 6.784-.101.247c-.337.752-.931 1.128-1.784 1.128-.236 0-.485-.036-.746-.107v-1.295h.236c.254 0 .449-.036.583-.11.134-.073.234-.205.298-.395l.145-.386-2.02-5.866h1.934l.919 3.277zm10.561.457c0-.275-.097-.49-.292-.644-.195-.154-.538-.313-1.029-.478a9.868 9.868 0 0 1-1.203-.478c-1.013-.498-1.52-1.182-1.52-2.052 0-.433.126-.815.379-1.147.252-.33.61-.589 1.071-.773a4.17 4.17 0 0 1 1.558-.277c.562 0 1.066.1 1.512.301.446.2.792.486 1.04.857.246.37.37.794.37 1.27h-1.88c0-.319-.098-.566-.293-.741-.195-.176-.46-.263-.792-.263-.337 0-.603.074-.798.223a.684.684 0 0 0-.292.566c0 .2.107.382.322.545.215.163.592.332 1.133.505.54.174.985.361 1.332.561.845.487 1.268 1.159 1.268 2.015 0 .684-.258 1.22-.774 1.611-.515.39-1.223.585-2.121.585a4.21 4.21 0 0 1-1.722-.34c-.514-.228-.9-.54-1.16-.935a2.435 2.435 0 0 1-.39-1.367h1.891c0 .419.109.728.325.926.217.2.569.298 1.056.298.311 0 .557-.067.738-.201a.665.665 0 0 0 .271-.567zm5.746 2.186c-.892 0-1.613-.265-2.165-.797-.551-.532-.827-1.224-.827-2.076v-.15c0-.595.11-1.12.33-1.574.22-.455.542-.807.965-1.056.422-.249.924-.373 1.504-.373.816 0 1.46.253 1.933.76.473.507.71 1.213.71 2.119v.704h-3.6c.065.325.206.581.425.768.218.186.501.279.849.279.572 0 1.02-.2 1.342-.602l.827.978c-.225.311-.545.56-.958.744a3.24 3.24 0 0 1-1.335.276zm-.204-4.63c-.53 0-.845.351-.945 1.053h1.826v-.14c.007-.29-.066-.514-.22-.673-.154-.16-.375-.24-.661-.24zm7.061.35l-.596-.043c-.57 0-.934.179-1.096.537V31h-1.81v-5.812h1.698l.059.747c.304-.57.728-.854 1.273-.854.193 0 .361.022.505.065l-.033 1.68zm3.232 2.02l.919-3.659h1.906L111.81 31h-1.847l-1.896-5.812h1.912l.902 3.658zm5.44 2.153h-1.816v-5.812h1.816V31zm-1.923-7.31c0-.258.093-.47.28-.634.185-.165.427-.247.724-.247s.54.082.725.247c.187.165.28.376.28.634s-.093.469-.28.634c-.186.164-.428.247-.725.247s-.539-.083-.725-.247a.808.808 0 0 1-.28-.634zm5.66 6.02c.254 0 .45-.068.59-.206.14-.138.208-.33.204-.577h1.698c0 .637-.229 1.16-.685 1.568-.457.408-1.045.612-1.765.612-.845 0-1.51-.265-1.998-.794-.487-.53-.73-1.264-.73-2.203v-.075c0-.587.108-1.105.325-1.555.217-.45.529-.795.937-1.036.408-.242.892-.363 1.45-.363.756 0 1.356.21 1.8.628.444.42.666.987.666 1.703h-1.698c0-.3-.073-.532-.22-.693-.147-.16-.344-.241-.59-.241-.47 0-.744.299-.822.897a6.33 6.33 0 0 0-.038.784c0 .583.07.988.21 1.214.14.225.361.338.665.338zm6.234 1.397c-.892 0-1.613-.265-2.165-.797-.551-.532-.827-1.224-.827-2.076v-.15c0-.595.11-1.12.33-1.574.22-.455.542-.807.965-1.056.422-.249.923-.373 1.503-.373.817 0 1.461.253 1.934.76.473.507.709 1.213.709 2.119v.704h-3.599c.065.325.206.581.425.768.218.186.501.279.848.279.573 0 1.02-.2 1.343-.602l.827.978c-.225.311-.545.56-.958.744a3.24 3.24 0 0 1-1.335.276zm-.204-4.63c-.53 0-.845.351-.946 1.053h1.827v-.14c.007-.29-.067-.514-.22-.673-.155-.16-.375-.24-.661-.24zm6.589 2.89c0-.154-.081-.277-.242-.37-.161-.094-.467-.19-.919-.29-.45-.1-.823-.232-1.117-.395a1.871 1.871 0 0 1-.671-.594 1.417 1.417 0 0 1-.231-.8c0-.534.22-.973.66-1.319.44-.345 1.017-.518 1.73-.518.766 0 1.382.174 1.848.521.465.347.698.804.698 1.37h-1.816c0-.466-.245-.699-.735-.699a.73.73 0 0 0-.478.159.49.49 0 0 0-.194.395c0 .16.079.291.237.392.157.1.409.182.754.247.346.064.65.141.91.23.874.302 1.311.84 1.311 1.617 0 .53-.235.962-.706 1.295-.471.333-1.08.5-1.829.5a3.16 3.16 0 0 1-1.332-.27 2.227 2.227 0 0 1-.913-.73 1.654 1.654 0 0 1-.328-.972h1.692c.007.269.097.465.269.588.172.124.392.186.66.186.247 0 .433-.05.556-.15a.481.481 0 0 0 .186-.393z"/>
    </g>
</svg>
