<svg width="28" height="36" viewBox="0 0 14 18" xmlns="http://www.w3.org/2000/svg" xmlns:xlink="http://www.w3.org/1999/xlink">
  <defs>
    <path d="M6 19c0 1.1.9 2 2 2h8a2 2 0 0 0 2-2V7H6v12zm2.46-7.12l1.41-1.41L12 12.59l2.12-2.12 1.41 1.41L13.41 14l2.12 2.12-1.41 1.41L12 15.41l-2.12 2.12-1.41-1.41L10.59 14l-2.13-2.12zM15.5 4l-1-1h-5l-1 1H5v2h14V4h-3.5z" id="a"/>
  </defs>
  <g transform="translate(-5 -3)" fill="none" fill-rule="evenodd">
    <mask id="b" fill="#fff">
      <use xlink:href="#a"/>
    </mask>
    <g mask="url(#b)" fill="#000" fill-opacity=".54">
      <path d="M0 0h24v24H0z"/>
    </g>
  </g>
</svg>
